<svg xmlns="http://www.w3.org/2000/svg" viewBox="0 0 480 80" width="480" height="80">
  <title>BasePixel Lockup - Dark</title>
  <desc>BasePixel logo with wordmark, black text version for light backgrounds</desc>
  <g transform="translate(0, 8)">
    <rect x="0" y="0" width="14" height="14" rx="1.5" fill="#FC401F"/>
    <rect x="16" y="0" width="14" height="14" rx="1.5" fill="#FC401F"/>
    <rect x="32" y="0" width="14" height="14" rx="1.5" fill="#FC401F"/>
    <rect x="48" y="0" width="14" height="14" rx="1.5" fill="#FC401F"/>
    <rect x="0" y="16" width="14" height="14" rx="1.5" fill="#FC401F"/>
    <rect x="16" y="16" width="14" height="14" rx="1.5" fill="#FC401F"/>
    <rect x="32" y="16" width="14" height="14" rx="1.5" fill="#FC401F"/>
    <rect x="48" y="16" width="14" height="14" rx="1.5" fill="#0000FF"/>
    <rect x="0" y="32" width="14" height="14" rx="1.5" fill="#FC401F"/>
    <rect x="16" y="32" width="14" height="14" rx="1.5" fill="#0000FF"/>
    <rect x="32" y="32" width="14" height="14" rx="1.5" fill="#0000FF"/>
    <rect x="48" y="32" width="14" height="14" rx="1.5" fill="#0000FF"/>
    <rect x="0" y="48" width="14" height="14" rx="1.5" fill="#0000FF"/>
    <rect x="16" y="48" width="14" height="14" rx="1.5" fill="#0000FF"/>
    <rect x="32" y="48" width="14" height="14" rx="1.5" fill="#0000FF"/>
    <rect x="48" y="48" width="14" height="14" rx="1.5" fill="#0000FF"/>
  </g>
  <text x="148" y="55" font-family="Inter Tight, system-ui, sans-serif" font-size="44" font-weight="700" fill="#0A0B0D" letter-spacing="-1.3">basepixel</text>
</svg>
